<svg class="svg-icon" style="width: 1em; height: 1em;vertical-align: middle;fill: currentColor;overflow: hidden;" viewBox="0 0 1024 1024" version="1.1" xmlns="http://www.w3.org/2000/svg"><path d="M1007.285828 976.501359L549.39893 511.914652 998.186089 47.327946c10.799691-11.099682 10.4997-28.699179-0.69998-39.49887-11.099682-10.699694-28.799176-10.399702-39.49887 0.69998L510.200052 472.115791 57.712999 13.028927C46.813311 2.029242 29.213814 1.929245 18.214129 12.728936S7.014449 41.22812 17.914137 52.227806l453.387028 460.086835-439.487425 454.986981c-10.799691 11.099682-10.4997 28.699179 0.69998 39.49887 5.399845 5.199851 12.499642 7.899774 19.499442 7.899774 7.299791 0 14.699579-2.899917 20.099425-8.499757L510.700037 552.013505l456.886927 463.686732c5.499843 5.59984 12.699637 8.299763 19.899431 8.299763 7.099797 0 14.199594-2.699923 19.599439-8.099768 10.799691-10.799691 10.999685-28.399187 0.199994-39.398873z" fill="#333234" /></svg>