<svg xmlns="http://www.w3.org/2000/svg" viewBox="0 0 32 32" enable-background="new 0 0 32 32">
    <path fill="white" style="text-indent:0;text-align:start;line-height:normal;text-transform:none;block-progression:tb;-inkscape-font-specification:Bitstream Vera Sans" d="M 2 5 C 1.4777778 5 0.93953051 5.1854695 0.5625 5.5625 C 0.18546949 5.9395305 0 6.4777778 0 7 L 0 25 C 0 25.522222 0.18546949 26.060469 0.5625 26.4375 C 0.93953051 26.814531 1.4777778 27 2 27 L 23 27 L 30 27 C 30.522222 27 31.060469 26.814531 31.4375 26.4375 C 31.814531 26.060469 32 25.522222 32 25 L 32 11 C 32 10.477778 31.814531 9.9395305 31.4375 9.5625 C 31.060469 9.1854695 30.522222 9 30 9 L 28 9 L 28 7 C 28 6.4777778 27.814531 5.9395305 27.4375 5.5625 C 27.060469 5.1854695 26.522222 5 26 5 L 2 5 z M 2 7 L 26 7 L 26 9 L 22 9 C 21.477778 9 20.939531 9.1854695 20.5625 9.5625 C 20.185469 9.9395305 20 10.477778 20 11 L 20 25 L 2 25 L 2 7 z M 22 11 L 30 11 L 30 25 L 23 25 L 22 25 L 22 11 z M 12 22 L 12 24 L 16 24 L 16 22 L 12 22 z M 24 22 L 24 24 L 28 24 L 28 22 L 24 22 z" color="#000" overflow="visible" enable-background="accumulate" font-family="Bitstream Vera Sans"/>
</svg>