<svg xmlns="http://www.w3.org/2000/svg" viewBox="0 0 32 32" enable-background="new 0 0 32 32">
    <path fill="white" style="text-indent:0;text-align:start;line-height:normal;text-transform:none;block-progression:tb;-inkscape-font-specification:Bitstream Vera Sans" d="M 2 5 L 2 6 L 2 24 L 2 25 L 3 25 L 7 25 L 7 28 L 7 30.09375 L 8.625 28.78125 L 13.34375 25 L 29 25 L 30 25 L 30 24 L 30 6 L 30 5 L 29 5 L 3 5 L 2 5 z M 4 7 L 28 7 L 28 23 L 13 23 L 12.65625 23 L 12.375 23.21875 L 9 25.90625 L 9 24 L 9 23 L 8 23 L 4 23 L 4 7 z M 8 12 L 8 14 L 24 14 L 24 12 L 8 12 z M 8 16 L 8 18 L 20 18 L 20 16 L 8 16 z" color="#000" overflow="visible" enable-background="accumulate" font-family="Bitstream Vera Sans"/>
</svg>