<svg xmlns="http://www.w3.org/2000/svg" xmlns:xlink="http://www.w3.org/1999/xlink" version="1.1" x="0px" y="0px" viewBox="0 0 100 100" enable-background="new 0 0 100 100" xml:space="preserve"><g>
<path fill="white" d="M11.8,65.4h54.3c1.1,0,2-0.9,2-2v-27c0-1.1-0.9-2-2-2H11.8c-1.1,0-2,0.9-2,2v27C9.8,64.5,10.7,65.4,11.8,65.4z M13.8,38.4   h50.3v23H13.8V38.4z"/>
<path fill="white" d="M64.1,85.4c0,1.1,0.9,2,2,2s2-0.9,2-2V71.9c0-1.1-0.9-2-2-2H11.8c-1.1,0-2,0.9-2,2v13.5c0,1.1,0.9,2,2,2s2-0.9,2-2V73.9   h50.3V85.4z"/>
<path fill="white" d="M11.8,30.1h54.3c1.1,0,2-0.9,2-2V14.6c0-1.1-0.9-2-2-2s-2,0.9-2,2v11.5H13.8V14.6c0-1.1-0.9-2-2-2s-2,0.9-2,2v13.5   C9.8,29.2,10.7,30.1,11.8,30.1z"/>
<path fill="white" d="M88.2,42.6h-3.9v-28c0-1.1-0.9-2-2-2s-2,0.9-2,2v28h-3.9c-1.1,0-2,0.9-2,2v10.8c0,1.1,0.9,2,2,2h3.9v28c0,1.1,0.9,2,2,2   s2-0.9,2-2v-28h3.9c1.1,0,2-0.9,2-2V44.6C90.2,43.5,89.3,42.6,88.2,42.6z M86.2,53.4h-3.9c0,0,0,0,0,0s0,0,0,0h-3.9v-6.8h3.9   c0,0,0,0,0,0s0,0,0,0h3.9V53.4z"/></g>
</svg>